HIERARCHY
ROOT Hips
{
  OFFSET 0 0 0
  CHANNELS 6 Xposition Yposition Zposition Zrotation Yrotation Xrotation
  JOINT LeftThigh
  {
    OFFSET 8.409438 0 -5.917753
    CHANNELS 3 Zrotation Yrotation Xrotation
    JOINT LeftLeg
    {
      OFFSET 0 0 -42.358652
      CHANNELS 3 Zrotation Yrotation Xrotation
      JOINT LeftFoot
      {
        OFFSET 0 0 -39.357303
        CHANNELS 3 Zrotation Yrotation Xrotation
      }
    }
  }
  JOINT RightThigh
  {
    OFFSET -8.409438 0 -5.917753
    CHANNELS 3 Zrotation Yrotation Xrotation
    JOINT RightLeg
    {
      OFFSET 0 0 -42.358652
      CHANNELS 3 Zrotation Yrotation Xrotation
      JOINT RightFoot
      {
        OFFSET 0 0 -39.357303
        CHANNELS 3 Zrotation Yrotation Xrotation
      }
    }
  }
  JOINT SpineLow
  {
    OFFSET 0 0 4.719101
    CHANNELS 3 Zrotation Yrotation Xrotation
    JOINT SpineMid
    {
      OFFSET 0 0 12.899191
      CHANNELS 3 Zrotation Yrotation Xrotation
      JOINT Chest
      {
        OFFSET 0 0 12.899191
        CHANNELS 3 Zrotation Yrotation Xrotation
        JOINT LeftShoulder
        {
          OFFSET 7.550562 1.41573 9.438202
          CHANNELS 3 Zrotation Yrotation Xrotation
          JOINT LeftArm
          {
            OFFSET 9.155056 0 4.247191
            CHANNELS 3 Zrotation Yrotation Xrotation
            JOINT LeftForearm
            {
              OFFSET 0 0 25.771955
              CHANNELS 3 Zrotation Yrotation Xrotation
              JOINT LeftHand
              {
                OFFSET 0 0 25.197169
                CHANNELS 3 Zrotation Yrotation Xrotation
              }
            }
          }
        }
        JOINT RightShoulder
        {
          OFFSET -7.550562 1.41573 9.438202
          CHANNELS 3 Zrotation Yrotation Xrotation
          JOINT RightArm
          {
            OFFSET -9.155056 0 4.247191
            CHANNELS 3 Zrotation Yrotation Xrotation
            JOINT RightForearm
            {
              OFFSET 0 0 -25.771955
              CHANNELS 3 Zrotation Yrotation Xrotation
              JOINT RightHand
              {
                OFFSET 0 0 -25.197169
                CHANNELS 3 Zrotation Yrotation Xrotation
              }
            }
          }
        }
        JOINT Neck
        {
          OFFSET 0 0 15.101124
          CHANNELS 3 Zrotation Yrotation Xrotation
          JOINT Head
          {
            OFFSET 0 0 11.325843
            CHANNELS 3 Zrotation Yrotation Xrotation
            End Site
            {
              OFFSET 0 0 14.157303
            }
          }
        }
      }
    }
  }
}
MOTION
Frames: 17
Frame Time: 0.0
0.0  93.25843  0.0  -0.122475  39.782738  -86.274776  4.561363  -15.802104  14.036624  -4.603068  0.010563  9.888302  3.836805  1.55898  -1.50222  -31.208065  -13.489488  -36.800464  3.874605  19.266983  31.751326  5.495179  1.129659  3.191766  -1.715879  -0.336393  -0.625348  -4.681428  -0.963248  -1.684588  -4.681429  -0.963248  -1.684589  -21.58459  23.957604  8.637419  111.765175  46.253671  -153.333151  -24.26222  -14.295661  77.988033  -13.642774  8.494849  101.528245  -1.423478  -10.382047  14.207892  70.72239  63.361308  3.851679  -50.512873  -6.855385  -76.477312  119.91453  -25.028824  41.017063  -10.093243  2.027386  4.299286  -7.583849  1.450087  3.258679  
0.0  93.25843  0.0  -0.520598  39.334788  -86.712728  4.990391  -16.144141  14.584214  -4.902814  0.133322  9.064116  4.091246  1.511535  -1.398412  -30.610771  -13.174018  -36.857684  3.32303  19.262497  31.707765  6.011426  0.894601  3.360871  -1.757724  -0.360993  -0.679653  -4.794341  -1.035428  -1.830544  -4.794342  -1.035428  -1.830544  -20.392995  23.771017  8.962366  110.34422  46.078413  -154.68298  -23.897026  -14.857191  78.230936  -14.054842  7.078083  103.372007  -0.737417  -10.53017  14.648556  70.43784  63.242545  3.957219  -50.34373  -6.873663  -76.016957  119.073369  -24.687751  41.695921  -9.618661  2.120813  4.562262  -7.229482  1.519351  3.455715  
0.0  93.25843  0.0  -0.530273  39.806294  -86.702835  4.27202  -16.161254  14.953688  -4.66996  0.161979  8.364559  4.118055  1.468281  -1.35503  -30.706212  -12.615562  -37.245852  2.734372  19.210634  31.866253  6.056981  0.81373  3.374896  -1.755732  -0.393139  -0.712838  -4.787475  -1.12558  -1.918929  -4.787475  -1.12558  -1.918929  -20.415695  23.699489  8.761104  108.731753  45.910146  -155.98572  -23.744172  -15.378167  78.220326  -14.282717  5.932917  105.178564  -1.092484  -10.35248  14.94381  70.094633  63.358166  3.947572  -50.259347  -6.920233  -75.623574  118.320676  -24.337414  42.368465  -9.810633  2.22698  4.544749  -7.374093  1.597871  3.444953  
0.0  93.25843  0.0  -0.631153  40.163859  -86.730515  3.47363  -16.071516  15.267707  -4.320947  0.054033  7.75112  4.147993  1.489378  -1.2901  -30.582043  -12.072961  -37.594111  1.953137  19.103601  31.983106  6.274975  0.729284  3.420736  -1.933833  -0.395374  -0.816176  -5.272386  -1.145014  -2.197895  -5.272386  -1.145014  -2.197895  -18.997895  23.536947  9.221658  105.690508  45.866703  -157.308687  -24.54021  -16.273184  77.316104  -14.038165  5.037866  106.731874  -0.463294  -10.369477  15.805301  69.735599  63.533287  3.897268  -50.272132  -6.887969  -75.254604  117.447411  -23.784555  42.855174  -10.033907  2.344627  4.515374  -7.542192  1.684984  3.425668  
0.0  93.25843  0.0  -0.789045  40.443536  -86.787677  2.584239  -15.906066  15.568225  -3.903878  -0.109915  7.231806  4.253974  1.479679  -1.291858  -30.209799  -11.552466  -37.901961  1.035906  19.04315  32.082829  6.339449  0.683349  3.451085  -1.958866  -0.460183  -0.844875  -5.33819  -1.325143  -2.27066  -5.338191  -1.325143  -2.27066  -18.810843  23.610078  9.082022  104.361751  45.841185  -158.453304  -24.608457  -16.130742  77.10352  -13.408233  4.344099  108.129744  -0.617927  -9.968042  16.116252  69.660779  63.432878  3.959544  -50.337135  -6.971093  -75.122765  116.79497  -23.377835  43.532359  -10.091255  2.399874  4.423935  -7.585179  1.727524  3.358202  
0.0  93.25843  0.0  -0.963128  40.558427  -86.868769  1.736944  -15.660634  15.692361  -3.938442  -0.334129  6.609321  4.899792  1.573852  -0.855375  -29.731094  -11.083254  -38.221548  0.243202  18.88475  32.293872  6.251031  0.654713  3.469204  -2.00769  -0.521696  -0.834295  -5.469924  -1.49391  -2.235712  -5.469924  -1.49391  -2.235712  -18.586332  23.624123  8.78703  103.153807  45.889  -159.60668  -24.700021  -15.960552  76.850687  -12.659374  3.634579  109.478372  -0.802665  -9.501905  15.932123  69.78379  63.104034  4.204563  -50.286223  -7.162731  -75.068284  116.017756  -22.879218  44.181058  -10.133221  2.385797  4.146652  -7.615422  1.72125  3.150148  
0.0  93.25843  0.0  -1.074583  40.647386  -86.885161  1.225074  -15.468828  15.833363  -3.965093  -0.532984  6.16745  5.283191  1.551405  -0.73811  -29.409945  -10.743933  -38.541347  -0.509286  18.778905  32.478384  6.143306  0.661655  3.434097  -2.052892  -0.563679  -0.807185  -5.592853  -1.607779  -2.157093  -5.592853  -1.607779  -2.157092  -18.422205  23.555377  8.481272  102.123755  45.970576  -160.844578  -24.689071  -15.926494  76.701967  -12.095841  2.821226  110.942683  -0.606544  -9.206193  15.681133  69.879519  62.619776  4.447928  -50.38992  -7.131244  -75.120771  115.330017  -22.564672  44.985225  -10.050788  2.276823  3.87647  -7.551902  1.644472  2.945379  
0.0  93.25843  0.0  -1.149362  40.243829  -86.948588  1.344862  -15.224806  15.984275  -3.893392  -0.827897  5.880945  5.38074  1.569596  -0.714885  -28.837327  -10.508925  -38.73687  -1.190107  18.763218  32.584812  6.028258  0.717661  3.376457  -2.259083  -0.507412  -0.845537  -6.15729  -1.464314  -2.261838  -6.15729  -1.464314  -2.261838  -18.012216  22.977491  8.290315  102.743022  45.77872  -161.667295  -24.597447  -16.169192  76.559408  -11.724519  1.676777  112.505829  0.867668  -9.557852  15.93059  68.775559  62.757337  4.617862  -49.933053  -7.818022  -75.224279  114.314119  -22.168904  45.600883  -9.215695  1.960519  3.978684  -6.924208  1.410844  3.014109  
0.0  93.25843  0.0  -1.025497  39.648353  -87.085898  1.72537  -14.944347  16.482321  -3.858115  -1.110417  5.470327  5.423444  1.575789  -0.702347  -28.299864  -10.220947  -38.723873  -1.810782  18.864009  32.590244  5.881505  0.748288  3.287978  -2.172347  -0.480437  -0.784364  -5.922385  -1.38227  -2.099138  -5.922385  -1.38227  -2.099138  -18.126815  22.733978  8.117236  101.947129  45.706244  -162.729092  -24.455149  -16.738409  76.322603  -11.598468  0.413736  114.262252  0.799792  -9.569558  15.626033  69.253984  62.325392  5.278142  -49.991035  -7.660134  -75.237018  113.387091  -22.164363  46.622452  -9.226823  1.799346  3.817614  -6.931108  1.29228  2.890932  
0.0  93.25843  0.0  -1.030965  38.26213  -87.5356  1.918204  -14.540778  16.867036  -2.851689  -1.361635  5.659633  5.551938  1.647641  -0.606745  -27.169791  -10.042004  -38.336935  -2.488714  19.121073  32.450704  5.913564  0.743449  3.160797  -1.974285  -0.462584  -0.70562  -5.383143  -1.320913  -1.889747  -5.383142  -1.320913  -1.889747  -19.493435  22.551498  7.536178  102.79723  45.457865  -163.307423  -24.200365  -17.494405  75.992875  -11.530734  -0.806296  116.019314  0.640409  -9.603599  15.464409  69.665299  62.108248  5.979686  -50.005163  -7.314757  -75.156773  112.175893  -22.305445  47.607811  -9.384584  1.723998  3.682042  -7.048596  1.236855  2.788584  
0.0  93.25843  0.0  -0.967325  37.786304  -87.437829  1.988069  -14.339194  17.228688  -2.409494  -1.651057  5.226987  5.513349  1.680949  -0.612698  -27.031151  -10.246683  -38.250215  -3.085749  19.426707  32.147379  6.022734  0.719458  3.105139  -1.918141  -0.45019  -0.714003  -5.229833  -1.286143  -1.914774  -5.229834  -1.286143  -1.914774  -19.566423  22.477621  7.560338  102.60906  45.300881  -163.970396  -23.975112  -18.166851  75.527001  -11.228011  -1.656425  117.709204  0.481877  -9.65551  15.425535  70.212109  61.98151  6.643576  -49.933946  -6.859499  -75.013758  110.929738  -22.871301  48.931375  -9.337568  1.630135  3.667301  -7.012784  1.166939  2.775972  
0.0  93.25843  0.0  -1.209256  36.274205  -87.801072  2.523645  -14.204374  17.761418  -1.777741  -1.911724  4.860974  5.795073  1.691456  -0.417468  -26.059885  -10.674306  -37.674989  -3.442783  19.675963  31.750439  6.047569  0.677443  3.110167  -1.754691  -0.459964  -0.680799  -4.783458  -1.305772  -1.826626  -4.783458  -1.305772  -1.826627  -19.519986  22.324717  7.582441  102.573704  45.081965  -164.107063  -23.876272  -18.796558  74.579035  -10.400709  -2.333689  119.08013  0.236038  -9.717235  15.338451  71.018489  61.918475  7.459271  -49.800711  -6.230807  -74.752737  109.33024  -23.58385  50.244983  -9.523245  1.584938  3.531019  -7.151417  1.134049  2.67357  
0.0  93.25843  0.0  -1.241575  35.724173  -87.667453  2.457387  -14.068766  18.14193  -1.155237  -2.099822  4.366596  5.824176  1.619897  -0.384618  -26.111079  -11.270801  -37.398245  -3.548981  19.781234  31.399273  5.921784  0.684589  3.196286  -1.716921  -0.468004  -0.692549  -4.679764  -1.327532  -1.858929  -4.679764  -1.327532  -1.858928  -19.542368  22.169689  7.501757  103.19494  44.937355  -164.277343  -23.704999  -18.804289  73.974228  -9.24648  -2.816479  120.214559  0.138089  -9.740576  15.25828  71.721043  61.954275  8.232362  -49.706561  -5.429921  -74.418873  107.586807  -24.483032  51.6837  -9.414349  1.434032  3.448703  -7.068751  1.022721  2.609223  
0.0  93.25843  0.0  -1.60035  34.091569  -87.998133  3.175921  -14.107911  18.631364  -0.637898  -2.291571  3.9046  5.979635  1.586462  -0.199782  -25.290898  -12.016128  -36.726647  -3.350013  19.670304  31.200973  5.82985  0.804217  3.348567  -1.682318  -0.462801  -0.680954  -4.585549  -1.311556  -1.82832  -4.585549  -1.311556  -1.82832  -19.545361  21.650861  7.24736  105.334809  44.674552  -163.985949  -23.275353  -18.279439  73.652957  -7.602325  -3.664281  120.643157  0.568558  -9.947235  15.156281  73.127307  61.688423  9.285113  -49.741443  -4.361396  -73.99433  105.527543  -25.304151  52.917318  -9.047945  1.184236  3.366198  -6.792483  0.838585  2.542756  
0.0  93.25843  0.0  -1.629555  33.445506  -87.868838  3.348677  -14.076677  19.069609  -0.046006  -2.397728  3.415163  5.822203  1.489163  -0.163996  -25.466429  -12.697344  -36.340801  -3.189849  19.558318  31.016569  5.450791  1.026158  3.376496  -1.665743  -0.48594  -0.686709  -4.539521  -1.374707  -1.842809  -4.539521  -1.374707  -1.842809  -19.425734  21.466062  7.130828  106.568103  44.589988  -163.747285  -23.012832  -17.887263  73.089772  -6.096132  -4.385646  121.149964  0.640531  -9.825724  14.900453  74.057334  61.58819  10.300593  -49.58998  -3.568634  -73.628925  103.428859  -26.355564  54.592997  -8.838473  1.057729  3.213419  -6.634445  0.74703  2.425897  
0.0  93.25843  0.0  -1.880154  32.376836  -87.895984  3.204231  -14.10052  19.067131  0.427774  -2.541725  3.01536  6.271405  1.53587  0.446595  -25.340382  -13.576224  -35.834388  -3.010824  19.50462  30.940415  5.392128  1.353111  3.352097  -1.636791  -0.544497  -0.699617  -4.458556  -1.534742  -1.874791  -4.458556  -1.534743  -1.874791  -20.098265  21.337737  6.620537  108.977759  44.412946  -163.344989  -22.720941  -17.661838  72.567385  -4.944304  -5.450454  121.549456  0.776588  -9.600766  14.616046  75.389451  61.336658  11.538786  -49.395302  -2.732936  -73.238981  101.131761  -27.593013  56.485784  -8.596373  0.992114  3.038259  -6.452239  0.701531  2.293132  
0.0  93.25843  0.0  -2.021333  31.682956  -87.795453  3.708317  -14.32829  19.390875  0.786604  -2.575623  2.707767  6.028193  1.460128  0.538438  -25.391167  -14.48191  -35.357126  -2.977511  19.798767  30.8434  5.80906  2.054646  3.091639  -1.659368  -0.597004  -0.717147  -4.518446  -1.679999  -1.918613  -4.518446  -1.679999  -1.918613  -19.802248  21.293937  6.468764  110.239925  44.262984  -163.128698  -22.236932  -17.843767  72.123862  -4.43103  -6.965534  121.8486  1.074629  -9.417522  14.346994  76.53673  61.252621  12.862307  -49.136608  -1.7305  -72.776484  98.562938  -29.111984  58.540047  -8.195334  0.954108  2.896717  -6.151044  0.676896  2.18575  
